<svg xmlns="http://www.w3.org/2000/svg" width="1024" height="1024" viewBox="0 0 1024 1024">
  <defs>
    <linearGradient id="bg" x1="0" y1="0" x2="1" y2="1">
      <stop offset="0%" stop-color="#eef4ff"/>
      <stop offset="100%" stop-color="#dbe6f6"/>
    </linearGradient>
    <linearGradient id="core" x1="0" y1="0" x2="1" y2="1">
      <stop offset="0%" stop-color="#16375f"/>
      <stop offset="100%" stop-color="#29558e"/>
    </linearGradient>
    <linearGradient id="lens" x1="0" y1="0" x2="1" y2="1">
      <stop offset="0%" stop-color="#8ed2ff"/>
      <stop offset="100%" stop-color="#4ea7f0"/>
    </linearGradient>
  </defs>
  <rect x="38" y="38" width="948" height="948" rx="220" fill="url(#bg)"/>
  <rect x="150" y="150" width="724" height="724" rx="180" fill="url(#core)"/>
  <path d="M328 288h286c49 0 88 39 88 88v214c0 49-39 88-88 88H398l-102 102v-404c0-49 39-88 88-88z" fill="#ffffff"/>
  <path d="M404 382h216" stroke="#1b3e6b" stroke-width="26" stroke-linecap="round"/>
  <path d="M404 450h180" stroke="#1b3e6b" stroke-width="26" stroke-linecap="round"/>
  <path d="M404 518h152" stroke="#1b3e6b" stroke-width="26" stroke-linecap="round"/>
  <circle cx="690" cy="690" r="118" fill="url(#lens)" stroke="#ffffff" stroke-width="28"/>
  <path d="M770 770l88 88" stroke="#ffffff" stroke-width="32" stroke-linecap="round"/>
</svg>
